# xmcd
#
# Track frame offsets: 
#        150
#        17041
#        36718
#        49017
#        70693
#        82895
#        99986
#        117645
#        131176
#        148493
#        163243
#        176512
#        191581
#        210322
#
# Disc length: 3063 seconds
#
# Revision: 7
# Processed by: cddbd v1.5.1PL2 Copyright (c) Steve Scherf et al.
# Submitted via: ExactAudioCopy v0.95a3
#
DISCID=ce0bf50e
DTITLE=Tété - L'air de rien
DYEAR=2001
DGENRE=Blues
TTITLE0=Le meilleur des mondes
TTITLE1=Passage Brady
TTITLE2=Love love love
TTITLE3=Me ressourcer
TTITLE4=Le magicien
TTITLE5=Dodeline
TTITLE6=Le bonheur
TTITLE7=Cousin Willy
TTITLE8=L'air de rien
TTITLE9=L'abominable Hyde
TTITLE10=Honni soit
TTITLE11=Les envies
TTITLE12=Aisé
TTITLE13=Eleanor Rigby
EXTD=YEAR: 2001
EXTT0=
EXTT1=
EXTT2=
EXTT3=
EXTT4=
EXTT5=
EXTT6=
EXTT7=
EXTT8=
EXTT9=
EXTT10=
EXTT11=
EXTT12=
EXTT13=
PLAYORDER=
